<?xml version="1.0" encoding="UTF-8"?>
<svg width="200px" height="37px" viewBox="0 0 200 37" version="1.1" xmlns="http://www.w3.org/2000/svg" xmlns:xlink="http://www.w3.org/1999/xlink">
    <!-- Generator: Sketch 58 (84663) - https://sketch.com -->
    <title>Colorful-navy Copy</title>
    <desc>Created with Sketch.</desc>
    <defs>
        <linearGradient x1="0%" y1="-163.783746%" x2="100%" y2="-122.294258%" id="linearGradient-1">
            <stop stop-color="#EC486A" offset="0%"></stop>
            <stop stop-color="#8A6DD5" offset="44.605152%"></stop>
            <stop stop-color="#71D9E4" offset="100%"></stop>
        </linearGradient>
        <linearGradient x1="0%" y1="39.2938849%" x2="100%" y2="41.3716445%" id="linearGradient-2">
            <stop stop-color="#EC486A" offset="0%"></stop>
            <stop stop-color="#8A6DD5" offset="44.605152%"></stop>
            <stop stop-color="#71D9E4" offset="100%"></stop>
        </linearGradient>
    </defs>
    <g id="Page-1" stroke="none" stroke-width="1" fill="none" fill-rule="evenodd">
        <g id="a-copy-8" transform="translate(-1333.000000, -2749.000000)" fill-rule="nonzero">
            <g id="Colorful-navy-Copy" transform="translate(1333.000000, 2749.000000)">
                <g id="Shape" transform="translate(67.200001, 0.000000)">
                    <g id="path-1-link" fill="#00C6C6" fill-opacity="0">
                        <path d="M20.3419997,30.0456558 L14.7094161,30.0456558 L14.7094161,17.1291521 C14.7094161,14.1654338 13.1692565,13.148038 10.7930104,13.148038 C8.59278253,13.148038 6.92060922,14.3866068 5.95250889,15.6251757 L5.95250889,30.0456558 L0.363930085,30.0456558 L0.363930085,8.6803432 L3.22424693,8.6803432 C4.73102439,8.6803432 5.95250889,9.90822255 5.95250889,11.4228885 C7.31665035,9.83044283 9.95692383,8.14952798 13.3892794,8.14952798 C18.0977671,8.14952798 20.3419997,10.8036041 20.3419997,14.9616566 L20.3419997,30.0456558 Z M35.5288434,30.576471 C28.5321185,30.576471 24.307681,25.4010226 24.307681,19.3408822 C24.307681,13.2807418 28.5321185,8.14952798 35.5288434,8.14952798 C42.5695728,8.14952798 46.7940103,13.2807418 46.7940103,19.3408822 C46.7940103,25.4010226 42.5695728,30.576471 35.5288434,30.576471 Z M35.5288434,25.577961 C39.0492081,25.577961 40.9854086,22.702712 40.9854086,19.3408822 C40.9854086,16.0232871 39.0492081,13.148038 35.5288434,13.148038 C32.0524832,13.148038 30.1162827,16.0232871 30.1162827,19.3408822 C30.1162827,22.702712 32.0524832,25.577961 35.5288434,25.577961 Z M60.6607174,30.576471 C53.6639925,30.576471 49.439555,25.4010226 49.439555,19.3408822 C49.439555,13.2807418 53.6639925,8.14952798 60.6607174,8.14952798 C67.7014468,8.14952798 71.9258843,13.2807418 71.9258843,19.3408822 C71.9258843,25.4010226 67.7014468,30.576471 60.6607174,30.576471 Z M60.6607174,25.577961 C64.1810821,25.577961 66.1172826,22.702712 66.1172826,19.3408822 C66.1172826,16.0232871 64.1810821,13.148038 60.6607174,13.148038 C57.1843572,13.148038 55.2481567,16.0232871 55.2481567,19.3408822 C55.2481567,22.702712 57.1843572,25.577961 60.6607174,25.577961 Z M96.177667,30.0456558 L93.2368734,30.0456558 C91.7502391,30.0456558 90.5450836,28.834191 90.5450836,27.3397734 L90.5450836,27.3031105 C88.8729104,29.4263715 86.5846735,30.576471 83.9884045,30.576471 C78.6638529,30.576471 74.571429,26.5068878 74.571429,19.3408822 C74.571429,12.3960497 78.5758437,8.14952798 83.9884045,8.14952798 C86.4966643,8.14952798 88.8729104,9.21115841 90.5450836,11.4228885 L90.5450836,3.78823535 C90.5450836,1.99493425 91.9912702,0.541176478 93.7752318,0.541176478 L96.177667,0.541176478 L96.177667,30.0456558 Z M85.7485867,25.577961 C87.5967783,25.577961 89.6209879,24.5605652 90.5450836,23.1450579 L90.5450836,15.5809411 C89.6209879,14.1654338 87.5967783,13.148038 85.7485867,13.148038 C82.536254,13.148038 80.336026,15.6694103 80.336026,19.3408822 C80.336026,23.0565888 82.536254,25.577961 85.7485867,25.577961 Z M107.140074,30.0456558 L101.551494,30.0456558 L101.551494,3.24705886 C101.551494,1.75264129 102.75665,0.541176478 104.243285,0.541176478 L107.140074,0.541176478 L107.140074,30.0456558 Z M122.502935,30.576471 C116.034539,30.576471 111.149758,26.1972455 111.149758,19.3408822 C111.149758,13.148038 115.726234,8.14952798 122.150899,8.14952798 C128.53156,8.14952798 132.800002,12.926865 132.800002,19.8716974 C132.800002,20.6046003 132.20896,21.1987355 131.479876,21.1987355 L117.002365,21.1987355 C117.398407,23.808577 119.510626,25.9760724 123.118999,25.9760724 C123.974339,25.9760724 125.170895,25.6256149 126.708669,24.9247001 C127.913644,24.3754744 129.337023,24.7879413 130.066261,25.8976631 L131.184928,27.6000004 C130.64657,28.3215691 129.390402,29.0431377 127.416421,29.7647064 C124.455453,30.8470593 123.119085,30.576471 122.502935,30.576471 Z M127.431445,17.3060905 C127.255427,15.2712989 125.847282,12.7499266 122.150899,12.7499266 C118.674539,12.7499266 117.178384,15.1828297 116.95836,17.3060905 L127.431445,17.3060905 Z" id="path-1"></path>
                    </g>
                    <g id="path-1-link" fill="#F7F8FB">
                        <path d="M20.3419997,30.0456558 L14.7094161,30.0456558 L14.7094161,17.1291521 C14.7094161,14.1654338 13.1692565,13.148038 10.7930104,13.148038 C8.59278253,13.148038 6.92060922,14.3866068 5.95250889,15.6251757 L5.95250889,30.0456558 L0.363930085,30.0456558 L0.363930085,8.6803432 L3.22424693,8.6803432 C4.73102439,8.6803432 5.95250889,9.90822255 5.95250889,11.4228885 C7.31665035,9.83044283 9.95692383,8.14952798 13.3892794,8.14952798 C18.0977671,8.14952798 20.3419997,10.8036041 20.3419997,14.9616566 L20.3419997,30.0456558 Z M35.5288434,30.576471 C28.5321185,30.576471 24.307681,25.4010226 24.307681,19.3408822 C24.307681,13.2807418 28.5321185,8.14952798 35.5288434,8.14952798 C42.5695728,8.14952798 46.7940103,13.2807418 46.7940103,19.3408822 C46.7940103,25.4010226 42.5695728,30.576471 35.5288434,30.576471 Z M35.5288434,25.577961 C39.0492081,25.577961 40.9854086,22.702712 40.9854086,19.3408822 C40.9854086,16.0232871 39.0492081,13.148038 35.5288434,13.148038 C32.0524832,13.148038 30.1162827,16.0232871 30.1162827,19.3408822 C30.1162827,22.702712 32.0524832,25.577961 35.5288434,25.577961 Z M60.6607174,30.576471 C53.6639925,30.576471 49.439555,25.4010226 49.439555,19.3408822 C49.439555,13.2807418 53.6639925,8.14952798 60.6607174,8.14952798 C67.7014468,8.14952798 71.9258843,13.2807418 71.9258843,19.3408822 C71.9258843,25.4010226 67.7014468,30.576471 60.6607174,30.576471 Z M60.6607174,25.577961 C64.1810821,25.577961 66.1172826,22.702712 66.1172826,19.3408822 C66.1172826,16.0232871 64.1810821,13.148038 60.6607174,13.148038 C57.1843572,13.148038 55.2481567,16.0232871 55.2481567,19.3408822 C55.2481567,22.702712 57.1843572,25.577961 60.6607174,25.577961 Z M96.177667,30.0456558 L93.2368734,30.0456558 C91.7502391,30.0456558 90.5450836,28.834191 90.5450836,27.3397734 L90.5450836,27.3031105 C88.8729104,29.4263715 86.5846735,30.576471 83.9884045,30.576471 C78.6638529,30.576471 74.571429,26.5068878 74.571429,19.3408822 C74.571429,12.3960497 78.5758437,8.14952798 83.9884045,8.14952798 C86.4966643,8.14952798 88.8729104,9.21115841 90.5450836,11.4228885 L90.5450836,3.78823535 C90.5450836,1.99493425 91.9912702,0.541176478 93.7752318,0.541176478 L96.177667,0.541176478 L96.177667,30.0456558 Z M85.7485867,25.577961 C87.5967783,25.577961 89.6209879,24.5605652 90.5450836,23.1450579 L90.5450836,15.5809411 C89.6209879,14.1654338 87.5967783,13.148038 85.7485867,13.148038 C82.536254,13.148038 80.336026,15.6694103 80.336026,19.3408822 C80.336026,23.0565888 82.536254,25.577961 85.7485867,25.577961 Z M107.140074,30.0456558 L101.551494,30.0456558 L101.551494,3.24705886 C101.551494,1.75264129 102.75665,0.541176478 104.243285,0.541176478 L107.140074,0.541176478 L107.140074,30.0456558 Z M122.502935,30.576471 C116.034539,30.576471 111.149758,26.1972455 111.149758,19.3408822 C111.149758,13.148038 115.726234,8.14952798 122.150899,8.14952798 C128.53156,8.14952798 132.800002,12.926865 132.800002,19.8716974 C132.800002,20.6046003 132.20896,21.1987355 131.479876,21.1987355 L117.002365,21.1987355 C117.398407,23.808577 119.510626,25.9760724 123.118999,25.9760724 C123.974339,25.9760724 125.170895,25.6256149 126.708669,24.9247001 C127.913644,24.3754744 129.337023,24.7879413 130.066261,25.8976631 L131.184928,27.6000004 C130.64657,28.3215691 129.390402,29.0431377 127.416421,29.7647064 C124.455453,30.8470593 123.119085,30.576471 122.502935,30.576471 Z M127.431445,17.3060905 C127.255427,15.2712989 125.847282,12.7499266 122.150899,12.7499266 C118.674539,12.7499266 117.178384,15.1828297 116.95836,17.3060905 L127.431445,17.3060905 Z" id="path-1"></path>
                    </g>
                </g>
                <g id="shape" fill="#4B5A6C">
                    <path d="M35.4881688,15.4461178 C36.6140429,16.1613343 36.9467098,17.6534603 36.231201,18.7788745 C35.5156922,19.9042886 34.0229565,20.2368197 32.8970824,19.5216032 L6.00948975,5.44647245 C5.8942343,5.38613846 5.76606836,5.35462238 5.6359646,5.35462238 C5.19129928,5.35462238 4.83082679,5.71494761 4.83082679,6.15943129 L4.83082679,30.3878755 C4.83082679,30.5583609 4.88498791,30.7244425 4.98550175,30.862176 C5.24755777,31.2212701 5.75121831,31.3000216 6.11045902,31.0380726 L11.9293747,26.7950706 C13.0165218,26.0223041 14.5245358,26.2767998 15.2976182,27.3635028 C16.0707006,28.4502059 15.8161008,29.9576038 14.7289537,30.7303705 L7.63040584,35.9064469 C6.81269377,36.4876935 5.83420949,36.8000005 4.83082679,36.8000005 C2.16283483,36.8000005 0,34.6380492 0,31.971147 L0,4.82946537 C0,3.91208814 0.261425897,3.01369097 0.753676024,2.23943733 C2.18469357,-0.0113910401 5.17016509,-0.676452906 7.42191328,0.753980078 L35.4881688,15.4461178 Z" id="Path"></path>
                    <path d="M9.73882155,21.0385526 C8.60800539,20.3233361 8.27387832,18.8312102 8.99252785,17.7057959 C9.71117736,16.5803818 11.2104655,16.2478508 12.3412817,16.9630673 L38.9061817,31.3246632 C39.0246628,31.3887169 39.1573567,31.4222701 39.2921905,31.4222701 C39.7388078,31.4222701 40.1008625,31.0619449 40.1008625,30.6174613 L40.1008625,6.26485737 C40.1008625,6.11660884 40.0597185,5.97124082 39.9819689,5.84478828 C39.7488576,5.46565402 39.2510591,5.3463763 38.8701051,5.57837407 L26.3925374,13.1771051 C25.3006181,13.9498717 23.7859847,13.6953759 23.0095088,12.6086729 C22.2330328,11.5219698 22.4887503,10.0145719 23.5806695,9.24180526 L37.2889946,0.893553618 C38.1102961,0.312307008 39.0930755,0 40.1008625,0 C42.7805658,0 44.9528943,2.16195133 44.9528943,4.82885345 L44.9528943,31.9705352 C44.9528943,32.8879123 44.690321,33.7863096 44.1959101,34.5605632 C42.758611,36.8113916 39.7600347,37.4764535 37.4984023,36.0460205 L9.73882155,21.0385526 Z" id="Path"></path>
                </g>
                <g id="shape" fill="url(#linearGradient-2)">
                    <path d="M23.6063047,9.22619356 L37.2889946,0.893553618 C38.1102961,0.312307008 39.0930755,-3.55271368e-15 40.1008625,-3.55271368e-15 C42.7805658,-3.55271368e-15 44.9528943,2.16195133 44.9528943,4.82885345 L44.9528943,31.9705352 C44.9528943,32.8879123 44.690321,33.7863096 44.1959101,34.5605632 C42.758611,36.8113916 39.7600347,37.4764535 37.4984023,36.0460205 L9.73882155,21.0385526 C8.60800539,20.3233361 8.27387832,18.8312102 8.99252785,17.7057959 C9.71117736,16.5803818 11.2104655,16.2478508 12.3412817,16.9630673 L38.9061817,31.3246632 C39.0246628,31.3887169 39.1573567,31.4222701 39.2921905,31.4222701 C39.7388078,31.4222701 40.1008625,31.0619449 40.1008625,30.6174613 L40.1008625,6.26485737 C40.1008625,6.11660884 40.0597185,5.97124082 39.9819689,5.84478828 C39.7488576,5.46565402 39.2510591,5.3463763 38.8701051,5.57837407 L28.5933628,11.8368213 L35.4881688,15.4461178 C36.6140429,16.1613343 36.9467098,17.6534603 36.231201,18.7788745 C35.5156922,19.9042886 34.0229565,20.2368197 32.8970824,19.5216032 L6.00948975,5.44647245 C5.8942343,5.38613846 5.76606836,5.35462238 5.6359646,5.35462238 C5.19129928,5.35462238 4.83082679,5.71494761 4.83082679,6.15943129 L4.83082679,30.3878755 C4.83082679,30.5583609 4.88498791,30.7244425 4.98550175,30.862176 C5.24755777,31.2212701 5.75121831,31.3000216 6.11045902,31.0380726 L11.9293747,26.7950706 C13.0165218,26.0223041 14.5245358,26.2767998 15.2976182,27.3635028 C16.0707006,28.4502059 15.8161008,29.9576038 14.7289537,30.7303705 L7.63040584,35.9064469 C6.81269377,36.4876935 5.83420949,36.8000006 4.83082679,36.8000006 C2.16283483,36.8000006 0,34.6380492 0,31.971147 L0,4.82946537 C0,3.91208814 0.261425897,3.01369097 0.753676024,2.23943733 C2.18469357,-0.0113910401 5.17016509,-0.676452906 7.42191328,0.753980078 L23.6063047,9.22619356 Z" id="Path"></path>
                </g>
            </g>
        </g>
    </g>
</svg>