<?xml version="1.0" encoding="UTF-8"?>
<svg width="197px" height="36px" viewBox="0 0 197 36" version="1.1" xmlns="http://www.w3.org/2000/svg" xmlns:xlink="http://www.w3.org/1999/xlink">
    <!-- Generator: Sketch 58 (84663) - https://sketch.com -->
    <title>noodle</title>
    <desc>Created with Sketch.</desc>
    <defs>
        <path d="M85.8576914,29.314109 L80.3334789,29.314109 L80.3334789,16.7120943 C80.3334789,13.8205361 78.822952,12.8279117 76.4924249,12.8279117 C74.3345293,12.8279117 72.6945288,14.036324 71.7450547,15.2447364 L71.7450547,29.314109 L66.2640001,29.314109 L66.2640001,8.4689956 L69.0692845,8.4689956 C70.5470716,8.4689956 71.7450547,9.66697875 71.7450547,11.1447659 C73.0829499,9.5910928 75.6724246,7.95110458 79.0387416,7.95110458 C83.656638,7.95110458 85.8576914,10.5405597 85.8576914,14.5973726 L85.8576914,29.314109 Z M100.75234,29.8320001 C93.8902323,29.8320001 89.747073,24.7825626 89.747073,18.8699735 C89.747073,12.9573844 93.8902323,7.95110458 100.75234,7.95110458 C107.657606,7.95110458 111.800765,12.9573844 111.800765,18.8699735 C111.800765,24.7825626 107.657606,29.8320001 100.75234,29.8320001 Z M100.75234,24.955193 C104.204973,24.955193 106.103921,22.14995 106.103921,18.8699735 C106.103921,15.6331547 104.204973,12.8279117 100.75234,12.8279117 C97.3428652,12.8279117 95.4439171,15.6331547 95.4439171,18.8699735 C95.4439171,22.14995 97.3428652,24.955193 100.75234,24.955193 Z M125.400676,29.8320001 C118.538569,29.8320001 114.395409,24.7825626 114.395409,18.8699735 C114.395409,12.9573844 118.538569,7.95110458 125.400676,7.95110458 C132.305942,7.95110458 136.449102,12.9573844 136.449102,18.8699735 C136.449102,24.7825626 132.305942,29.8320001 125.400676,29.8320001 Z M125.400676,24.955193 C128.853309,24.955193 130.752257,22.14995 130.752257,18.8699735 C130.752257,15.6331547 128.853309,12.8279117 125.400676,12.8279117 C121.991202,12.8279117 120.092254,15.6331547 120.092254,18.8699735 C120.092254,22.14995 121.991202,24.955193 125.400676,24.955193 Z M160.23428,29.314109 L157.350067,29.314109 C155.892035,29.314109 154.710067,28.1321408 154.710067,26.674109 L154.710067,26.6383388 C153.070067,28.7099029 150.825855,29.8320001 148.279539,29.8320001 C143.057431,29.8320001 139.043746,25.8615023 139.043746,18.8699735 C139.043746,12.0942327 142.971116,7.95110458 148.279539,7.95110458 C150.739539,7.95110458 153.070067,8.98688661 154.710067,11.1447659 L154.710067,3.69600001 C154.710067,1.94636192 156.128429,0.528000001 157.878067,0.528000001 L160.23428,0.528000001 L160.23428,29.314109 Z M150.005855,24.955193 C151.818487,24.955193 153.803751,23.9625685 154.710067,22.5815258 L154.710067,15.2015788 C153.803751,13.8205361 151.818487,12.8279117 150.005855,12.8279117 C146.855328,12.8279117 144.697432,15.287894 144.697432,18.8699735 C144.697432,22.4952106 146.855328,24.955193 150.005855,24.955193 Z M170.985769,29.314109 L165.504714,29.314109 L165.504714,3.16800001 C165.504714,1.70996826 166.686683,0.528000001 168.144714,0.528000001 L170.985769,0.528000001 L170.985769,29.314109 Z M186.053049,29.8320001 C179.709106,29.8320001 174.918308,25.5593992 174.918308,18.8699735 C174.918308,12.8279117 179.406731,7.95110458 185.707786,7.95110458 C191.965683,7.95110458 196.152,12.6121237 196.152,19.3878645 C196.152,20.1029228 195.572331,20.6825921 194.857273,20.6825921 L180.658311,20.6825921 C181.046732,23.2288896 183.118311,25.3436112 186.65726,25.3436112 C187.496143,25.3436112 188.669678,25.0016866 190.177865,24.3178374 C191.359655,23.7819843 192.755648,24.1844085 193.470856,25.267111 L194.568,26.928 C194.04,27.632 192.808,28.3360001 190.872,29.0400001 C187.968,30.0960001 186.657344,29.8320001 186.053049,29.8320001 Z M190.886735,16.8847246 C190.714104,14.8994757 189.333051,12.4394934 185.707786,12.4394934 C182.298311,12.4394934 180.830942,14.8131606 180.615153,16.8847246 L190.886735,16.8847246 Z" id="path-1"></path>
        <linearGradient x1="0%" y1="16.8399727%" x2="95.5340655%" y2="83.1600273%" id="linearGradient-2">
            <stop stop-color="#EC486A" offset="0%"></stop>
            <stop stop-color="#8A6DD5" offset="44.605152%"></stop>
            <stop stop-color="#71D9E4" offset="100%"></stop>
        </linearGradient>
    </defs>
    <g id="Page-1" stroke="none" stroke-width="1" fill="none" fill-rule="evenodd">
        <g id="a-copy-8" transform="translate(-292.000000, -398.000000)" fill-rule="nonzero">
            <g id="noodle" transform="translate(292.000000, 398.000000)">
                <g id="Shape">
                    <use fill-opacity="0" fill="#00C6C6" xlink:href="#path-1"></use>
                    <use fill="#000000" xlink:href="#path-1"></use>
                </g>
                <g id="shape" fill="#4B5A6C">
                    <path d="M34.805376,15.0700382 C35.9095883,15.7678408 36.2358546,17.2236367 35.5341122,18.3216495 C34.8323698,19.4196623 33.3683543,19.7440968 32.2641421,19.0462943 L5.89386709,5.31386262 C5.78082915,5.25499763 5.65512913,5.2242489 5.52752857,5.2242489 C5.09141861,5.2242489 4.73788163,5.57580098 4.73788163,6.00946245 L4.73788163,29.6479963 C4.73788163,29.8143309 4.79100068,29.9763687 4.88958063,30.1107487 C5.1465947,30.4610995 5.64056479,30.5379337 5.99289371,30.2823626 L11.6998533,26.1426686 C12.7660838,25.3887172 14.2450835,25.6370165 15.0032918,26.6972607 C15.7615001,27.7575049 15.5117989,29.228201 14.4455684,29.9821524 L7.48359673,35.0322025 C6.68161745,35.5992971 5.72195924,35.9040001 4.73788163,35.9040001 C2.12122186,35.9040001 0,33.7946876 0,31.1927188 L0,4.71187832 C0,3.81683725 0.256396059,2.94031412 0.739175287,2.18491187 C2.14266004,-0.0111136929 5.07069103,-0.65998274 7.27911557,0.735622293 L34.805376,15.0700382 Z" id="Path"></path>
                    <path d="M9.5514465,20.5263093 C8.44238726,19.8285068 8.1146888,18.3727109 8.81951149,17.2746981 C9.52433418,16.1766853 10.994776,15.8522508 12.1038353,16.5500533 L38.1576262,30.5619754 C38.2738279,30.6244695 38.4039687,30.6572057 38.5362083,30.6572057 C38.9742325,30.6572057 39.3293214,30.3056537 39.3293214,29.8719922 L39.3293214,6.11232163 C39.3293214,5.96768264 39.288969,5.82585401 39.2127153,5.70248031 C38.9840891,5.33257715 38.4958683,5.2162036 38.1222438,5.44255271 L25.8847445,12.856271 C24.8138339,13.6102225 23.328342,13.3619231 22.5668055,12.3016789 C21.805269,11.2414348 22.0560664,9.77073867 23.126977,9.01678726 L36.5715539,0.871797518 C37.3770535,0.304703007 38.3409241,0 39.3293214,0 C41.9574671,0 44.0880001,2.10931248 44.0880001,4.7112813 L44.0880001,31.1921217 C44.0880001,32.0871628 43.8304786,32.9636859 43.3455802,33.7190882 C41.9359348,35.9151138 38.9950511,36.5639828 36.7769326,35.1683778 L9.5514465,20.5263093 Z" id="Path"></path>
                </g>
                <g id="shape" fill="url(#linearGradient-2)">
                    <path d="M23.1521191,9.00155569 L36.5715539,0.871797518 C37.3770535,0.304703007 38.3409241,-3.55271368e-15 39.3293214,-3.55271368e-15 C41.9574671,-3.55271368e-15 44.0880001,2.10931248 44.0880001,4.7112813 L44.0880001,31.1921217 C44.0880001,32.0871628 43.8304786,32.9636859 43.3455802,33.7190882 C41.9359348,35.9151138 38.9950511,36.5639828 36.7769326,35.1683778 L9.5514465,20.5263093 C8.44238726,19.8285068 8.1146888,18.3727109 8.81951149,17.2746981 C9.52433418,16.1766853 10.994776,15.8522508 12.1038353,16.5500533 L38.1576262,30.5619754 C38.2738279,30.6244695 38.4039687,30.6572057 38.5362083,30.6572057 C38.9742325,30.6572057 39.3293214,30.3056537 39.3293214,29.8719922 L39.3293214,6.11232163 C39.3293214,5.96768264 39.288969,5.82585401 39.2127153,5.70248031 C38.9840891,5.33257715 38.4958683,5.2162036 38.1222438,5.44255271 L28.0432262,11.5486203 L34.805376,15.0700382 C35.9095883,15.7678408 36.2358546,17.2236367 35.5341122,18.3216495 C34.8323698,19.4196623 33.3683543,19.7440968 32.2641421,19.0462943 L5.89386709,5.31386262 C5.78082915,5.25499763 5.65512913,5.2242489 5.52752857,5.2242489 C5.09141861,5.2242489 4.73788163,5.57580098 4.73788163,6.00946245 L4.73788163,29.6479963 C4.73788163,29.8143309 4.79100068,29.9763687 4.88958063,30.1107487 C5.1465947,30.4610995 5.64056479,30.5379337 5.99289371,30.2823626 L11.6998533,26.1426686 C12.7660838,25.3887172 14.2450835,25.6370165 15.0032918,26.6972607 C15.7615001,27.7575049 15.5117989,29.228201 14.4455684,29.9821524 L7.48359673,35.0322025 C6.68161745,35.5992971 5.72195924,35.9040001 4.73788163,35.9040001 C2.12122186,35.9040001 0,33.7946876 0,31.1927188 L0,4.71187832 C0,3.81683725 0.256396059,2.94031412 0.739175287,2.18491187 C2.14266004,-0.0111136929 5.07069103,-0.65998274 7.27911557,0.735622293 L23.1521191,9.00155569 Z" id="Path"></path>
                </g>
            </g>
        </g>
    </g>
</svg>