<?xml version="1.0" encoding="UTF-8"?>
<svg width="20px" height="16px" viewBox="0 0 20 16" version="1.1" xmlns="http://www.w3.org/2000/svg" xmlns:xlink="http://www.w3.org/1999/xlink">
    <!-- Generator: Sketch 58 (84663) - https://sketch.com -->
    <title>path3611</title>
    <desc>Created with Sketch.</desc>
    <g id="Page-1" stroke="none" stroke-width="1" fill="none" fill-rule="evenodd">
        <g id="a-copy" transform="translate(-1600.000000, -8241.000000)" fill="#FC4572" fill-rule="nonzero">
            <g id="footer" transform="translate(0.000000, 7627.000000)">
                <g id="Group-6">
                    <g transform="translate(1247.000000, 612.000000)">
                        <g id="Twitter_Bird" transform="translate(353.000000, 2.000000)">
                            <path d="M6.28984907,16 C13.8375241,16 17.9647642,9.84491208 17.9647642,4.50764174 C17.9647642,4.33281618 17.9611467,4.15877944 17.9531803,3.98552953 C18.7543875,3.41538106 19.4507947,2.70387604 20,1.89393337 C19.2647928,2.21562658 18.4735855,2.43218914 17.643577,2.5298393 C18.4907855,2.02977682 19.1411914,1.23873526 19.4479947,0.29570536 C18.6551868,0.758360708 17.7771783,1.09462316 16.8423691,1.27614106 C16.0935619,0.491005009 15.0275513,0 13.8471402,0 C11.5811178,0 9.74349938,1.80888439 9.74349938,4.03868581 C9.74349938,4.35565341 9.77949937,4.66395994 9.8499007,4.95966464 C6.43946783,4.79074659 3.4154369,3.18346243 1.39181784,0.739460934 C1.03941388,1.33638475 0.836212583,2.02977682 0.836212583,2.7696315 C0.836212583,4.17098555 1.56061915,5.40814582 2.66222967,6.13185694 C1.98902376,6.11138219 1.35661718,5.92946922 0.803811248,5.62667644 C0.803207221,5.64362335 0.803207221,5.66014545 0.803207221,5.67825774 C0.803207221,7.63440353 2.2176217,9.26767553 4.09524012,9.63779942 C3.75043683,9.73033088 3.38763287,9.77994279 3.01322959,9.77994279 C2.74922696,9.77994279 2.49202433,9.7543652 2.24202237,9.70709991 C2.76442696,11.3120216 4.27924142,12.4798814 6.07525985,12.5125636 C4.67084537,13.5961605 2.90162827,14.2415163 0.97880987,14.2415163 C0.64800591,14.2415163 0.321203291,14.2229944 0,14.1856032 C1.81601843,15.3314145 3.97243947,16 6.29006115,16" id="path3611"></path>
                        </g>
                    </g>
                </g>
            </g>
        </g>
    </g>
</svg>