<?xml version="1.0" encoding="UTF-8"?>
<svg width="953px" height="108px" viewBox="0 0 953 108" version="1.1" xmlns="http://www.w3.org/2000/svg" xmlns:xlink="http://www.w3.org/1999/xlink">
    <!-- Generator: Sketch 58 (84663) - https://sketch.com -->
    <title>ui</title>
    <desc>Created with Sketch.</desc>
    <g id="Page-1" stroke="none" stroke-width="1" fill="none" fill-rule="evenodd" fill-opacity="0">
        <g id="a-copy-6" transform="translate(-280.000000, -490.000000)" fill="#FFFFFF" fill-rule="nonzero" stroke="#FFFFFF">
            <path d="M317.2,585.4 C311.599972,585.4 306.560022,584.540009 302.08,582.82 C297.599978,581.099991 293.760016,578.620016 290.56,575.38 C287.359984,572.139984 284.900009,568.260023 283.18,563.74 C281.459991,559.219977 280.6,554.160028 280.6,548.56 L280.6,497.8 L298.48,497.8 L298.48,547.72 C298.48,552.040022 299.239992,555.799984 300.76,559 C302.280008,562.200016 304.459986,564.659991 307.3,566.38 C310.140014,568.100009 313.479981,568.96 317.32,568.96 C321.160019,568.96 324.479986,568.100009 327.28,566.38 C330.080014,564.659991 332.259992,562.200016 333.82,559 C335.380008,555.799984 336.16,552.040022 336.16,547.72 L336.16,497.8 L354.04,497.8 L354.04,548.56 C354.04,554.160028 353.180009,559.219977 351.46,563.74 C349.739991,568.260023 347.260016,572.139984 344.02,575.38 C340.779984,578.620016 336.900023,581.099991 332.38,582.82 C327.859977,584.540009 322.800028,585.4 317.2,585.4 Z M368.44,583 L368.44,497.8 L386.32,497.8 L386.32,583 L368.44,583 Z M395.08,596.8 L434.8,491.44 L450.16,491.44 L410.44,596.8 L395.08,596.8 Z M494.32,585.4 C488.719972,585.4 483.680022,584.540009 479.2,582.82 C474.719978,581.099991 470.880016,578.620016 467.68,575.38 C464.479984,572.139984 462.020009,568.260023 460.3,563.74 C458.579991,559.219977 457.72,554.160028 457.72,548.56 L457.72,497.8 L475.6,497.8 L475.6,547.72 C475.6,552.040022 476.359992,555.799984 477.88,559 C479.400008,562.200016 481.579986,564.659991 484.42,566.38 C487.260014,568.100009 490.599981,568.96 494.44,568.96 C498.280019,568.96 501.599986,568.100009 504.4,566.38 C507.200014,564.659991 509.379992,562.200016 510.94,559 C512.500008,555.799984 513.28,552.040022 513.28,547.72 L513.28,497.8 L531.16,497.8 L531.16,548.56 C531.16,554.160028 530.300009,559.219977 528.58,563.74 C526.859991,568.260023 524.380016,572.139984 521.14,575.38 C517.899984,578.620016 514.020023,581.099991 509.5,582.82 C504.979977,584.540009 499.920028,585.4 494.32,585.4 Z M537.28,583 L567.52,538.12 L540.76,497.8 L561.04,497.8 L577.72,525.4 L594.4,497.8 L614.2,497.8 L587.56,538.12 L617.8,583 L596.68,583 L577.24,551.8 L557.8,583 L537.28,583 Z M651.76,583 L651.76,497.8 L684.88,497.8 C691.600034,497.8 697.719972,498.81999 703.24,500.86 C708.760028,502.90001 713.51998,505.799981 717.52,509.56 C721.52002,513.320019 724.599989,517.799974 726.76,523 C728.920011,528.200026 730,533.959968 730,540.28 C730,546.600032 728.900011,552.379974 726.7,557.62 C724.499989,562.860026 721.40002,567.379981 717.4,571.18 C713.39998,574.980019 708.620028,577.89999 703.06,579.94 C697.499972,581.98001 691.360034,583 684.64,583 L651.76,583 Z M669.64,567.16 L683.8,567.16 C689.480028,567.16 694.399979,566.080011 698.56,563.92 C702.720021,561.759989 705.919989,558.68002 708.16,554.68 C710.400011,550.67998 711.52,545.920028 711.52,540.4 C711.52,534.879972 710.400011,530.12002 708.16,526.12 C705.919989,522.11998 702.720021,519.040011 698.56,516.88 C694.399979,514.719989 689.480028,513.64 683.8,513.64 L669.64,513.64 L669.64,567.16 Z M742.84,583 L742.84,497.8 L796.24,497.8 L796.24,513.04 L760.12,513.04 L760.12,531.64 L792.4,531.64 L792.4,546.88 L760.12,546.88 L760.12,567.76 L797.44,567.76 L797.44,583 L742.84,583 Z M838,584.8 C832.879974,584.8 828.180021,583.900009 823.9,582.1 C819.619979,580.299991 815.980015,577.740017 812.98,574.42 C809.979985,571.099983 807.920006,567.120023 806.8,562.48 L823.48,558.88 C824.520005,562.160016 826.339987,564.719991 828.94,566.56 C831.540013,568.400009 834.639982,569.32 838.24,569.32 C840.800013,569.32 843.05999,568.860005 845.02,567.94 C846.98001,567.019995 848.499995,565.760008 849.58,564.16 C850.660005,562.559992 851.2,560.72001 851.2,558.64 C851.2,555.999987 850.20001,553.860008 848.2,552.22 C846.19999,550.579992 842.960022,549.240005 838.48,548.2 L834.64,547.36 C825.839956,545.43999 819.360021,542.340021 815.2,538.06 C811.039979,533.779979 808.96,528.560031 808.96,522.4 C808.96,518.559981 809.719992,515.040016 811.24,511.84 C812.760008,508.639984 814.859987,505.860012 817.54,503.5 C820.220013,501.139988 823.359982,499.300007 826.96,497.98 C830.560018,496.659993 834.439979,496 838.6,496 C843.320024,496 847.71998,496.879991 851.8,498.64 C855.88002,500.400009 859.319986,502.919984 862.12,506.2 C864.920014,509.480016 866.8,513.359978 867.76,517.84 L851.32,521.44 C850.359995,518.239984 848.700012,515.780009 846.34,514.06 C843.979988,512.339991 841.240016,511.48 838.12,511.48 C835.959989,511.48 834.020009,511.899996 832.3,512.74 C830.579991,513.580004 829.220005,514.739993 828.22,516.22 C827.219995,517.700007 826.72,519.359991 826.72,521.2 C826.72,524.000014 827.799989,526.139993 829.96,527.62 C832.120011,529.100007 835.319979,530.319995 839.56,531.28 L843.4,532.12 C852.120044,534.04001 858.579979,537.079979 862.78,541.24 C866.980021,545.400021 869.08,550.719968 869.08,557.2 C869.08,561.28002 868.3,564.999983 866.74,568.36 C865.179992,571.720017 863.000014,574.639988 860.2,577.12 C857.399986,579.600012 854.120019,581.5 850.36,582.82 C846.599981,584.140007 842.480022,584.8 838,584.8 Z M880.48,583 L880.48,497.8 L898.36,497.8 L898.36,583 L880.48,583 Z M955.12,585.4 C950.079975,585.4 945.340022,584.680007 940.9,583.24 C936.459978,581.799993 932.420018,579.740013 928.78,577.06 C925.139982,574.379987 922.020013,571.200018 919.42,567.52 C916.819987,563.839982 914.800007,559.740023 913.36,555.22 C911.919993,550.699977 911.2,545.840026 911.2,540.64 C911.2,535.439974 911.919993,530.560023 913.36,526 C914.800007,521.439977 916.839987,517.280019 919.48,513.52 C922.120013,509.759981 925.279982,506.540013 928.96,503.86 C932.640018,501.179987 936.699978,499.100007 941.14,497.62 C945.580022,496.139993 950.319975,495.4 955.36,495.4 C961.040028,495.4 966.319976,496.319991 971.2,498.16 C976.080024,500.000009 980.379981,502.639983 984.1,506.08 C987.820019,509.520017 990.71999,513.679976 992.8,518.56 L975.52,523.84 C973.359989,519.999981 970.580017,517.04001 967.18,514.96 C963.779983,512.87999 959.840022,511.84 955.36,511.84 C951.679982,511.84 948.280016,512.539993 945.16,513.94 C942.039984,515.340007 939.320012,517.339987 937,519.94 C934.679988,522.540013 932.880006,525.559983 931.6,529 C930.319994,532.440017 929.68,536.19998 929.68,540.28 C929.68,544.440021 930.319994,548.279982 931.6,551.8 C932.880006,555.320018 934.699988,558.359987 937.06,560.92 C939.420012,563.480013 942.199984,565.459993 945.4,566.86 C948.600016,568.260007 952.119981,568.96 955.96,568.96 C960.04002,568.96 963.679984,568.200008 966.88,566.68 C970.080016,565.159992 972.67999,563.040014 974.68,560.32 C976.68001,557.599986 977.919998,554.400018 978.4,550.72 L957.16,550.72 L957.16,535.96 L996.76,535.96 L996.76,544.96 C996.76,550.88003 995.74001,556.319975 993.7,561.28 C991.65999,566.240025 988.800018,570.519982 985.12,574.12 C981.439982,577.720018 977.040026,580.49999 971.92,582.46 C966.799974,584.42001 961.20003,585.4 955.12,585.4 Z M1009.24,583 L1009.24,497.8 L1024.72,497.8 L1064.2,554.2 L1064.2,497.8 L1081.48,497.8 L1081.48,583 L1066,583 L1026.52,526.6 L1026.52,583 L1009.24,583 Z M1097.08,583 L1097.08,497.8 L1150.48,497.8 L1150.48,513.04 L1114.36,513.04 L1114.36,531.64 L1146.64,531.64 L1146.64,546.88 L1114.36,546.88 L1114.36,567.76 L1151.68,567.76 L1151.68,583 L1097.08,583 Z M1165.96,583 L1165.96,497.8 L1193.32,497.8 C1200.28003,497.8 1206.29997,498.899989 1211.38,501.1 C1216.46003,503.300011 1220.35999,506.459979 1223.08,510.58 C1225.80001,514.700021 1227.16,519.559972 1227.16,525.16 C1227.16,528.440016 1226.56001,531.579985 1225.36,534.58 C1224.15999,537.580015 1222.48001,540.299988 1220.32,542.74 C1218.15999,545.180012 1215.56002,547.199992 1212.52,548.8 L1231.84,583 L1212.16,583 L1196.92,553.48 C1195.39999,553.56 1193.76001,553.6 1192,553.6 C1189.43999,553.6 1186.64002,553.360002 1183.6,552.88 L1183.6,583 L1165.96,583 Z M1183.6,512.92 L1192.96,512.92 C1198.08003,512.92 1202.03999,514.039989 1204.84,516.28 C1207.64001,518.520011 1209.04,521.67998 1209.04,525.76 C1209.04,529.84002 1207.64001,533.019989 1204.84,535.3 C1202.03999,537.580011 1198.08003,538.72 1192.96,538.72 C1191.27999,538.72 1189.68001,538.660001 1188.16,538.54 C1186.63999,538.42 1185.12001,538.240001 1183.6,538 L1183.6,512.92 Z" id="ui"></path>
        </g>
    </g>
</svg>